HIERARCHY
ROOT Hips
{
  OFFSET 35.9993 94.9548 30.3989
  CHANNELS 6 Xposition Yposition Zposition Zrotation Xrotation Yrotation
  JOINT RightUpLeg
  {
    OFFSET -8.9458 -8.66707 0.101652
    CHANNELS 3 Zrotation Xrotation Yrotation
    JOINT RightLeg
    {
      OFFSET 0 -44.4227 1.3727
      CHANNELS 3 Zrotation Xrotation Yrotation
      JOINT RightFoot
      {
        OFFSET 0.253549 -42.0924 -1.46059
        CHANNELS 3 Zrotation Xrotation Yrotation
        JOINT RightToes
        {
          OFFSET 0.04 -4.41509 8.4991
          CHANNELS 3 Zrotation Xrotation Yrotation
          End Site
          {
            OFFSET -0.08 -0.137448 9.77979
          }
        }
      }
    }
  }
  JOINT Spine
  {
    OFFSET 0 11.8905 0
    CHANNELS 3 Zrotation Xrotation Yrotation
    JOINT Spine1
    {
      OFFSET 0 25.6574 0.127663
      CHANNELS 3 Zrotation Xrotation Yrotation
      JOINT HEad
      {
        OFFSET 0 8.73416 0.011341
        CHANNELS 3 Zrotation Xrotation Yrotation
        End Site
        {
          OFFSET -0.29 12.7742 2.51395
        }
      }
      JOINT LeftShoulder1
      {
        OFFSET 8.99 -0.362252 -0.22
        CHANNELS 3 Zrotation Xrotation Yrotation
        JOINT LeftArm
        {
          OFFSET 10.2827 -0.00338 0.322123
          CHANNELS 3 Zrotation Xrotation Yrotation
          JOINT LeftForeArm
          {
            OFFSET 32.7669 0.099144 -1.42434
            CHANNELS 3 Zrotation Xrotation Yrotation
            JOINT LeftHand
            {
              OFFSET 27.5643 0.085362 1.02216
              CHANNELS 3 Zrotation Xrotation Yrotation
              End Site
              {
                OFFSET 16.7443 -0.6 1.50291
              }
            }
          }
        }
      }
      JOINT RightShoulder
      {
        OFFSET -8.99 -0.362252 -0.22
        CHANNELS 3 Zrotation Xrotation Yrotation
        JOINT RightArm
        {
          OFFSET -10.2827 -0.00338 0.322123
          CHANNELS 3 Zrotation Xrotation Yrotation
          JOINT RightForeArm
          {
            OFFSET -32.8971 0.099144 -1.42434
            CHANNELS 3 Zrotation Xrotation Yrotation
            JOINT RightHand
            {
              OFFSET -27.4921 0.085362 1.02216
              CHANNELS 3 Zrotation Xrotation Yrotation
              End Site
              {
                OFFSET -16.6312 -0.6 1.50291
              }
            }
          }
        }
      }
    }
  }
  JOINT LeftUpLeg
  {
    OFFSET 8.9458 -8.66707 0.101652
    CHANNELS 3 Zrotation Xrotation Yrotation
    JOINT LeftLeg
    {
      OFFSET 0 -44.4227 1.3727
      CHANNELS 3 Zrotation Xrotation Yrotation
      JOINT LeftFoot
      {
        OFFSET -0.253549 -42.0924 -1.46059
        CHANNELS 3 Zrotation Xrotation Yrotation
        JOINT LeftToes
        {
          OFFSET -0.04 -4.41509 8.4991
          CHANNELS 3 Zrotation Xrotation Yrotation
          End Site
          {
            OFFSET 0.08 -0.047448 9.77979
          }
        }
      }
    }
  }
}
MOTION
Frames:	18
Frame Time:	0.0166667
56.4649 94.4668 22.8295 -1.01438 3.24184 -164.762 -18.8653 -18.1558 1.74587 3.5272 31.272 -2.97022 9.03695 16.9039 -1.94305 -15.9987 -54.0792 -1.29859 2.52848 7.97813 -6.57663 -0.184166 15.5226 -12.028 8.29117 0.859113 -11.1782 6.95746e-016 -3.18055e-015 -3.97569e-016 -77.5709 2.02359 -62.0423 -15.6987 45.0392 -107.308 6.54677 9.62745 -1.04006 19.5936 -0.0343612 -2.59136 89.247 -45.1124 59.1616 -18.3027 36.9248 144.157 -20.4943 11.5198 -13.7608 19.1206 -3.84295 -11.397 -26.6303 39.2047 26.6328 -2.19407 6.71416 0.21854 27.7682 -39.9247 19.4469 
56.4811 94.6941 22.8469 -0.907321 3.17058 -164.88 -18.8938 -17.9189 1.82057 3.98447 30.5578 -3.02913 8.55807 16.4645 -1.81048 -15.6064 -52.7778 -1.27688 2.40542 7.82124 -7.0625 0.400266 15.2288 -13.1769 7.42056 1.95566 -9.14544 -3.97569e-016 0 -7.95139e-016 -76.7404 2.01997 -64.3586 -15.216 44.0223 -105.345 6.54677 9.62745 -1.04006 19.8852 0.0294591 -2.29226 82.7764 -40.0296 53.7565 -18.2293 30.0189 145.957 -24.2059 11.4268 -11.7862 18.7494 -2.75553 -11.3592 -26.1356 37.4274 28.8815 -0.711821 2.6973 0.0324692 23.3491 -35.4809 16.5311 
56.4093 94.8088 22.9716 -0.371517 3.05883 -165.141 -18.2963 -18.1467 1.92705 3.95557 30.3296 -2.79877 8.25511 15.4347 -1.67944 -14.942 -50.0854 -1.44054 2.4583 7.67634 -7.34673 1.03499 14.941 -13.8795 6.67241 3.35072 -7.58106 3.97569e-016 -6.36111e-015 -7.95139e-016 -75.0334 2.18522 -67.041 -14.795 42.8881 -102.945 6.54677 9.62745 -1.04006 19.9158 -0.102196 -2.88799 85.3083 -39.7606 54.6819 -17.6716 30.04 149.532 -23.2767 11.3432 -11.676 18.728 -1.62444 -11.1221 -24.4719 34.9178 29.6866 0.64161 5.41796 -0.121206 27.207 -39.1361 19.3887 
56.2767 94.8962 23.1301 0.112908 2.66643 -165.163 -17.9274 -18.3773 2.43717 4.064 29.5487 -3.44771 8.3947 15.8499 -1.73518 -14.9607 -49.9439 -1.52835 2.43196 7.48321 -7.69719 1.42974 14.561 -14.6883 7.18182 4.8612 -6.01435 3.97569e-016 3.18055e-015 -7.95139e-016 -72.3568 2.75528 -70.9506 -13.7152 40.8778 -100.141 6.54677 9.62745 -1.04006 19.5441 -0.115138 -2.96464 92.0036 -42.3244 57.9209 -16.198 34.698 153.78 -21.9091 11.2519 -11.6653 18.6489 -1.24463 -11.1344 -23.5555 33.7111 30.0785 1.2652 3.83285 -0.165362 26.2068 -38.9867 17.7125 
56.13 94.8887 23.4389 0.417934 2.55332 -164.953 -17.9615 -18.6506 2.90019 4.75142 29.6202 -4.07035 8.18919 14.459 -1.60306 -14.1346 -46.9614 -1.57818 2.35397 7.35972 -8.13294 1.45784 14.3193 -15.6157 7.75172 6.76546 -4.5042 7.95139e-016 0 -0 -67.3266 3.10126 -75.0286 -12.4966 37.4117 -97.917 6.54677 9.62745 -1.04006 19.6061 -0.35172 -4.04698 89.3962 -37.1025 56.5447 -16.2588 30.1843 154.505 -23.0696 11.2467 -11.2494 18.4717 -1.00943 -12.172 -23.1725 32.5818 30.5776 2.05364 2.85921 -0.221192 25.9777 -38.2835 18.1474 
55.9655 94.8494 23.8426 0.557515 2.82563 -164.267 -18.1557 -18.2755 2.87739 5.31654 29.3829 -4.75785 7.79444 14.6155 -1.53648 -14.5 -46.3345 -2.41688 2.25056 7.3571 -8.59143 1.31641 14.3238 -16.5092 8.62333 7.99734 -3.65647 -3.97569e-016 3.18055e-015 -0 -62.1322 3.16478 -78.6857 -11.3992 34.5933 -97.1678 6.54677 9.62745 -1.04006 19.9251 -0.233117 -3.48032 94.5163 -39.4913 59.866 -15.3504 33.6662 157.263 -23.0239 11.2046 -11.0465 18.2191 -0.75878 -13.3796 -22.2765 32.0789 29.952 0.954314 2.54074 -0.115781 26.8043 -39.222 18.5387 
55.724 94.7468 24.2938 0.513822 3.16559 -164.017 -18.2217 -18.0278 2.643 5.10867 29.2379 -4.25799 7.48704 15.1597 -1.50865 -15.8425 -46.1969 -4.53543 2.32863 7.47105 -9.13484 1.25502 14.5417 -17.547 8.99135 8.85145 -2.0579 3.97569e-016 -3.18055e-015 -0 -61.9142 1.05538 -79.1694 -11.7662 36.4449 -98.6606 6.54677 9.62745 -1.04006 19.372 -0.0921849 -2.8668 92.4773 -35.8433 59.8026 -15.5845 28.3911 157.038 -23.7988 11.4674 -12.1233 17.9211 -0.165635 -14.0044 -21.3578 30.9123 29.5678 1.67114 6.04738 -0.251343 32.1026 -43.3154 22.8747 
55.4393 94.7695 24.776 0.480057 3.46311 -164.222 -18.4059 -18.3 4.22088 6.11448 29.9223 -5.72241 7.69993 11.3451 -1.32092 -12.2302 -38.7746 -2.31119 2.23862 7.65416 -8.97086 1.12536 14.9125 -17.2472 9.3645 9.03463 -2.54516 1.19271e-015 -3.18055e-015 1.59028e-015 -66.915 1.1257 -77.1632 -13.9088 41.7814 -99.3992 6.54677 9.62745 -1.04006 19.7483 -0.582133 -5.08407 93.2098 -33.3394 62.1643 -15.9566 26.884 157.744 -21.7617 11.4861 -12.9983 17.1651 0.40095 -12.4356 -18.782 31.1369 27.7712 -0.111996 7.9573 -0.0481471 34.6694 -46.7266 23.0657 
55.2249 94.6853 25.2101 0.33069 3.81888 -164.748 -18.2436 -18.1764 4.14339 5.24286 29.5053 -4.99651 7.46573 12.9882 -1.37778 -12.8415 -40.8081 -2.34619 1.98921 7.6939 -8.40896 0.658507 15.0155 -16.0917 10.1009 9.52908 -3.92806 -7.95139e-016 6.36111e-015 -0 -67.5373 2.74636 -76.1914 -14.2818 42.28 -100.209 6.54677 9.62745 -1.04006 19.819 -0.808708 -6.10379 89.1868 -30.5064 61.9384 -15.8567 21.1885 156.504 -21.7776 11.4267 -12.6673 17.4662 0.998149 -12.1615 -19.8517 30.3641 28.1391 1.57036 8.36318 -0.284652 35.8808 -46.962 24.6657 
54.9514 94.6735 25.6825 0.300177 3.89323 -165.201 -18.4322 -18.2371 5.20172 5.82224 28.8105 -5.85144 6.71809 13.5338 -1.27149 -12.8408 -40.4318 -2.5258 1.54235 7.52902 -7.88049 -0.0767918 14.7487 -15.0036 11.5205 10.2012 -5.74611 7.95139e-016 3.18055e-015 1.59028e-015 -67.0419 4.20925 -76.5906 -13.6455 41.0653 -99.5295 6.54677 9.62745 -1.04006 19.2025 -0.23986 -3.56375 93.8009 -36.732 65.3567 -16.5133 21.7718 157.21 -22.0963 11.4819 -12.8374 17.4121 1.22134 -10.9143 -19.6924 30.0452 28.08 2.29128 10.0656 -0.429117 38.3535 -48.8859 26.2091 
54.5641 94.7078 26.1776 0.26313 4.08893 -164.657 -18.5302 -17.6825 3.58289 4.42927 28.3288 -4.1719 7.39442 13.1754 -1.37573 -12.0831 -38.7231 -2.08781 1.30126 7.38308 -7.65442 -1.04928 14.4698 -14.4378 13.7538 11.5467 -7.58639 -3.97569e-016 3.18055e-015 7.95139e-016 -67.0437 5.35277 -75.3893 -14.1794 40.9765 -97.8287 6.54677 9.62745 -1.04006 20.9705 -1.04405 -6.9262 95.432 -36.2299 65.4992 -15.1157 27.4635 159.813 -19.7949 11.4741 -13.8364 17.5643 1.24865 -10.9873 -20.1318 29.3295 28.0282 2.89671 11.8978 -0.57942 41.4111 -50.48 28.8173 
54.2814 94.7294 26.6305 0.253385 4.34683 -164.641 -18.7971 -17.295 3.87217 4.96074 27.6008 -4.30727 6.26684 13.4449 -1.18394 -12.3734 -37.665 -3.10687 0.997536 7.13884 -7.42215 -1.24021 14.0207 -14.0093 14.2332 12.7043 -9.31701 -1.39149e-015 9.54166e-015 -0 -66.5278 6.2021 -73.9163 -13.5754 38.7727 -96.8046 6.54677 9.62745 -1.04006 20.3498 -0.659094 -5.34565 95.8023 -38.2719 65.4206 -14.8551 27.4261 159.959 -18.7368 11.4062 -13.9692 17.5081 1.46451 -9.85068 -19.5743 29.4163 26.937 2.9902 12.2902 -0.607847 42.2721 -51.437 28.9666 
53.9473 94.8655 27.1566 0.390278 4.87095 -164.253 -18.2717 -16.7457 2.77742 3.13732 27.8176 -2.27235 8.35928 9.92661 -1.33672 -9.63226 -30.1826 -2.09953 1.06422 7.26702 -7.267 -1.28534 14.2616 -13.6584 14.6796 13.1322 -10.5476 7.95139e-016 0 -7.95139e-016 -64.851 7.41293 -72.818 -12.7205 35.9197 -96.247 6.54677 9.62745 -1.04006 20.8657 -0.859504 -6.14483 96.2395 -38.8998 66.5282 -14.9346 28.6737 160.125 -18.0728 11.4554 -14.6691 17.6837 2.0534 -9.25346 -18.9382 28.8323 25.9861 2.2388 13.2456 -0.501778 43.7888 -52.9832 29.3648 
53.6001 94.9697 27.6121 0.885502 4.92911 -163.969 -18.4722 -16.5035 4.52118 5.11391 26.907 -4.75177 7.53564 8.76495 -1.14205 -8.42214 -25.8164 -2.19821 1.41367 7.16531 -7.33288 -0.737782 14.0273 -13.8196 13.7204 13.4262 -10.4677 5.96354e-016 3.18055e-015 -7.95139e-016 -64.4774 7.15795 -71.0052 -12.1985 34.04 -95.7981 6.54677 9.62745 -1.04006 21.0988 -0.860905 -6.11066 96.3446 -39.1 67.1862 -15.9395 28.6495 159.683 -18.5646 11.5249 -14.8289 18.057 2.05631 -8.27863 -18.2346 28.4955 24.7441 2.20783 13.5386 -0.503521 44.3064 -54.5355 28.4185 
53.2867 95.2532 28.0592 0.956364 4.96913 -164.037 -18.0247 -16.4188 4.00463 3.52868 26.6101 -3.81918 9.66403 6.61775 -1.28165 -6.35592 -19.8827 -1.42214 1.25231 6.99914 -7.31664 -0.712393 13.7109 -13.8358 12.442 13.2162 -10.2417 -1.98785e-016 0 -7.95139e-016 -64.6265 6.48714 -67.8965 -12.0996 33.2869 -96.0484 6.54677 9.62745 -1.04006 21.7495 -1.08838 -6.95778 91.8998 -36.373 64.3689 -16.43 26.3793 158.857 -19.4961 11.6614 -15.1376 17.8862 2.43125 -7.86282 -18.0229 27.688 24.115 2.35191 12.3334 -0.498258 42.0353 -53.4292 26.52 
52.9261 95.55 28.4564 1.13823 4.40834 -164.432 -18.0337 -17.1081 3.76296 3.15411 26.0628 -3.22965 9.88503 5.805 -1.24494 -5.1864 -15.0362 -1.97727 1.30441 6.75174 -7.09675 -0.824509 13.2095 -13.3946 12.3735 12.1536 -10.1489 1.98785e-016 -3.18055e-015 -0 -65.7184 5.76024 -64.4032 -12.4863 33.8576 -96.6322 6.54677 9.62745 -1.04006 22.1279 -1.1339 -7.07153 88.1065 -35.1205 61.9551 -15.5845 26.5145 157.244 -20.4831 11.4249 -13.2139 17.4544 2.43032 -7.99121 -17.8039 26.5992 24.4376 1.44195 10.6884 -0.309704 39.0876 -52.6665 23.2167 
52.6776 95.9384 28.8127 1.5409 4.34727 -164.736 -17.6852 -17.2304 4.11741 3.35493 25.1078 -3.48933 9.76046 6.53232 -1.28704 -4.76924 -12.4613 -2.87437 1.1677 6.65834 -6.87213 -0.764152 13.031 -13.0104 12.6168 11.1412 -10.4661 3.97569e-016 3.18055e-015 -1.59028e-015 -67.6728 4.63621 -60.4763 -13.1972 35.7229 -97.9332 6.54677 9.62745 -1.04006 23.5921 -1.7264 -9.11105 89.6229 -36.0178 61.6943 -15.3008 31.7045 158.784 -19.5382 11.5953 -14.709 17.1619 2.60809 -8.14055 -17.334 26.066 23.6014 2.07078 7.81206 -0.34124 35.1797 -48.7337 21.644 
52.3928 96.3855 29.1201 1.65951 3.95386 -165.155 -17.5485 -17.9417 3.02455 2.44365 25.0457 -2.51049 11.0907 5.48465 -1.35858 -3.20807 -6.87681 -3.31212 1.07693 6.52545 -6.66601 -0.937504 12.7748 -12.6217 13.5086 10.0928 -10.7393 -1.98785e-016 0 -1.59028e-015 -69.9449 3.64001 -56.7069 -13.8721 37.6035 -99.7908 6.54677 9.62745 -1.04006 24.2283 -1.89531 -9.59087 98.2335 -42.6312 64.3911 -14.1401 44.0433 162.409 -16.8914 11.5741 -16.2768 16.4247 2.76135 -9.39432 -17.2839 24.7113 25.072 3.20898 5.93824 -0.431282 31.6717 -45.5252 19.6374 
